<?xml version="1.0" encoding="UTF-8" standalone="no"?>
<svg
   xmlns:dc="http://purl.org/dc/elements/1.1/"
   xmlns:cc="http://creativecommons.org/ns#"
   xmlns:rdf="http://www.w3.org/1999/02/22-rdf-syntax-ns#"
   xmlns:svg="http://www.w3.org/2000/svg"
   xmlns="http://www.w3.org/2000/svg"
   xmlns:sodipodi="http://sodipodi.sourceforge.net/DTD/sodipodi-0.dtd"
   xmlns:inkscape="http://www.inkscape.org/namespaces/inkscape"
   version="1.1"
   id="Your_Icon"
   x="0px"
   y="0px"
   width="180"
   height="141.2766"
   viewBox="5 -10 180 190.7234"
   enable-background="new 0 0 100 100"
   xml:space="preserve"
   inkscape:version="0.48.4 r9939"
   sodipodi:docname="noun_24249_cc.svg"><metadata
     id="metadata5318"><rdf:RDF><cc:Work
         rdf:about=""><dc:format>image/svg+xml</dc:format><dc:type
           rdf:resource="http://purl.org/dc/dcmitype/StillImage" /><dc:title></dc:title></cc:Work></rdf:RDF></metadata><defs
     id="defs5316" /><sodipodi:namedview
     pagecolor="#ffffff"
     bordercolor="#666666"
     borderopacity="1"
     objecttolerance="10"
     gridtolerance="10"
     guidetolerance="10"
     inkscape:pageopacity="0"
     inkscape:pageshadow="2"
     inkscape:window-width="1366"
     inkscape:window-height="714"
     id="namedview5314"
     showgrid="false"
     inkscape:zoom="2.36"
     inkscape:cx="37.436418"
     inkscape:cy="58.066426"
     inkscape:window-x="0"
     inkscape:window-y="26"
     inkscape:window-maximized="1"
     inkscape:current-layer="Your_Icon"
     fit-margin-top="20"
     fit-margin-left="20"
     fit-margin-right="20"
     fit-margin-bottom="20" /><path
     d="M 52.292553,23.031915 74.409574,43.138294 H 179.96809 V 147.69148 H 3.031915 V 23.031915 H 51.287234 M 52.292553,17 H 4.037234 C 0.705607,17 -3,18.694968 -3,22.026595 V 146.68617 c 0,3.33162 3.705607,7.03723 7.037234,7.03723 H 180.9734 c 3.33163,0 5.0266,-3.70561 5.0266,-7.03723 V 42.132974 c 0,-3.33162 -1.69497,-5.02659 -5.0266,-5.02659 H 76.741915 L 56.350021,18.568298 C 55.240149,17.558957 53.792489,17 52.292553,17 l 0,0 z"
     id="path5292"
     inkscape:connector-curvature="0"
     style="fill:#333333;fill-opacity:1"
     inkscape:export-filename="/home/stephanie/kindlebox/app/static/img/noun_24249_cc.png"
     inkscape:export-xdpi="95.625"
     inkscape:export-ydpi="95.625" /><path
     d="m 94.638611,74.447955 c -0.55494,-0.33979 -0.60118,-0.96108 -0.10054,-1.37929 L 107.88067,61.935754 c 0.50065,-0.41821 1.36321,-0.47652 1.91614,-0.13069 l 22.04062,14.428341 c 0.55091,0.34583 0.59112,0.96511 0.0844,1.37729 l -13.32245,10.84337 c -0.50668,0.41218 -1.37527,0.46848 -1.93021,0.12868 L 94.638611,74.447955 z"
     id="path5294"
     inkscape:connector-curvature="0"
     style="fill:#333333;fill-opacity:1"
     inkscape:export-filename="/home/stephanie/kindlebox/app/static/img/noun_24249_cc.png"
     inkscape:export-xdpi="95.625"
     inkscape:export-ydpi="95.625" /><path
     d="M 91.431641,73.933235"
     id="path5296"
     inkscape:connector-curvature="0"
     style="fill:#333333;fill-opacity:1"
     inkscape:export-filename="/home/stephanie/kindlebox/app/static/img/noun_24249_cc.png"
     inkscape:export-xdpi="95.625"
     inkscape:export-ydpi="95.625" /><path
     d="m 118.99548,91.230755 c -0.49462,-0.42625 -1.35517,-0.49864 -1.91413,-0.16286 L 96.210931,103.64845 c -0.55695,0.33578 -0.61124,0.96109 -0.11662,1.38332 l 11.587309,9.95668 c 0.49461,0.42626 1.3612,0.50467 1.92418,0.17694 l 21.16398,-12.29706 c 0.56298,-0.32774 0.62128,-0.945 0.12667,-1.37126 L 118.99548,91.230755 z"
     id="path5298"
     inkscape:connector-curvature="0"
     style="fill:#333333;fill-opacity:1"
     inkscape:export-filename="/home/stephanie/kindlebox/app/static/img/noun_24249_cc.png"
     inkscape:export-xdpi="95.625"
     inkscape:export-ydpi="95.625" /><path
     d="m 94.538071,106.16979 c -0.50064,-0.41821 -0.91082,-0.22519 -0.91082,0.42626 v 24.29454 c 0,0.65145 0.45642,0.90479 1.01136,0.56499 L 115.9373,118.37035 c 0.55493,-0.34181 1.01135,-1.15411 1.01135,-1.80556 v -2.33435 c 0,-0.65144 -0.46044,-0.91685 -1.02342,-0.5871 l -6.26716,3.66539 c -0.56297,0.32773 -1.43358,0.25736 -1.93423,-0.16085 L 94.538071,106.16979 z"
     id="path5300"
     inkscape:connector-curvature="0"
     style="fill:#333333;fill-opacity:1"
     inkscape:export-filename="/home/stephanie/kindlebox/app/static/img/noun_24249_cc.png"
     inkscape:export-xdpi="95.625"
     inkscape:export-ydpi="95.625" /><path
     d="m 90.937021,74.447955 c 0.55695,-0.33979 0.60118,-0.96108 0.10254,-1.37929 L 77.696968,61.935754 c -0.500649,-0.41821 -1.363213,-0.47652 -1.916138,-0.13069 L 53.740213,76.233405 c -0.552926,0.34583 -0.591128,0.96511 -0.08646,1.37729 l 13.3245,10.84337 c 0.504671,0.41218 1.375277,0.46848 1.930213,0.12868 l 22.028555,-14.13479 z"
     id="path5302"
     inkscape:connector-curvature="0"
     style="fill:#333333;fill-opacity:1"
     inkscape:export-filename="/home/stephanie/kindlebox/app/static/img/noun_24249_cc.png"
     inkscape:export-xdpi="95.625"
     inkscape:export-ydpi="95.625" /><path
     d="M 95.816841,73.933235"
     id="path5304"
     inkscape:connector-curvature="0"
     style="fill:#333333;fill-opacity:1"
     inkscape:export-filename="/home/stephanie/kindlebox/app/static/img/noun_24249_cc.png"
     inkscape:export-xdpi="95.625"
     inkscape:export-ydpi="95.625" /><path
     d="m 66.580149,91.230755 c 0.492606,-0.42625 1.35517,-0.49864 1.912117,-0.16286 l 20.870425,12.580555 c 0.55896,0.33578 0.61124,0.96109 0.11662,1.38332 L 77.892,114.98845 c -0.492606,0.42626 -1.361202,0.50467 -1.924181,0.17694 L 54.80384,102.86833 c -0.562978,-0.32774 -0.621287,-0.945 -0.12667,-1.37126 L 66.580149,91.230755 z"
     id="path5306"
     inkscape:connector-curvature="0"
     style="fill:#333333;fill-opacity:1"
     inkscape:export-filename="/home/stephanie/kindlebox/app/static/img/noun_24249_cc.png"
     inkscape:export-xdpi="95.625"
     inkscape:export-ydpi="95.625" /><path
     d="m 91.037551,106.16979 c 0.50065,-0.41821 0.91082,-0.22519 0.91082,0.42626 v 24.29454 c 0,0.65145 -0.4544,0.90479 -1.00934,0.56499 L 69.63833,118.37035 c -0.552926,-0.34181 -1.009341,-1.15411 -1.009341,-1.80556 v -2.33435 c 0,-0.65144 0.460437,-0.91685 1.023415,-0.5871 l 6.26716,3.66539 c 0.560968,0.32773 1.433585,0.25736 1.934234,-0.16085 l 13.183753,-10.97809 z"
     id="path5308"
     inkscape:connector-curvature="0"
     style="fill:#333333;fill-opacity:1"
     inkscape:export-filename="/home/stephanie/kindlebox/app/static/img/noun_24249_cc.png"
     inkscape:export-xdpi="95.625"
     inkscape:export-ydpi="95.625" /></svg>