<?xml version="1.0" encoding="UTF-8" standalone="no"?>
<svg
   xmlns:dc="http://purl.org/dc/elements/1.1/"
   xmlns:cc="http://creativecommons.org/ns#"
   xmlns:rdf="http://www.w3.org/1999/02/22-rdf-syntax-ns#"
   xmlns:svg="http://www.w3.org/2000/svg"
   xmlns="http://www.w3.org/2000/svg"
   xmlns:sodipodi="http://sodipodi.sourceforge.net/DTD/sodipodi-0.dtd"
   xmlns:inkscape="http://www.inkscape.org/namespaces/inkscape"
   xml:space="preserve"
   width="1034.14"
   height="1510.42"
   version="1.1"
   style="fill-rule:evenodd"
   viewBox="26.3 -77.8 525.98082 0"
   id="svg4146"
   inkscape:version="0.48.4 r9939"
   sodipodi:docname="noun_54054_cc.svg"><metadata
     id="metadata4162"><rdf:RDF><cc:Work
         rdf:about=""><dc:format>image/svg+xml</dc:format><dc:type
           rdf:resource="http://purl.org/dc/dcmitype/StillImage" /><dc:title></dc:title></cc:Work></rdf:RDF></metadata><sodipodi:namedview
     pagecolor="#ffffff"
     bordercolor="#666666"
     borderopacity="1"
     objecttolerance="10"
     gridtolerance="10"
     guidetolerance="10"
     inkscape:pageopacity="0"
     inkscape:pageshadow="2"
     inkscape:window-width="1366"
     inkscape:window-height="714"
     id="namedview4160"
     showgrid="false"
     fit-margin-top="20"
     fit-margin-left="20"
     fit-margin-right="20"
     fit-margin-bottom="20"
     inkscape:zoom="0.1767767"
     inkscape:cx="433.78623"
     inkscape:cy="711.61199"
     inkscape:window-x="0"
     inkscape:window-y="26"
     inkscape:window-maximized="1"
     inkscape:current-layer="svg4146" /><defs
     id="defs4148"><style
       type="text/css"
       id="style4150">
   
    .fil0 {fill:black}
   
  </style></defs><g
     id="Livello_x0020_1"
     inkscape:export-filename="/home/stephanie/kindlebox/app/static/img/noun_54054_cc.png"
     inkscape:export-xdpi="95.625"
     inkscape:export-ydpi="95.625"
     transform="matrix(1.89,0,0,1.89,20,20)"><metadata
       id="CorelCorpID_0Corel-Layer" /><path
       class="fil0"
       d="m 17,0 492,0 c 9,0 17,8 17,17 l 0,744 c 0,9 -8,17 -17,17 L 17,778 C 8,778 0,770 0,761 L 0,17 C 0,8 8,0 17,0 z m 155,150 183,0 0,32 -183,0 0,-32 z m -91,50 365,0 0,32 -365,0 0,-32 z m 0,50 365,0 0,32 -365,0 0,-32 z m 0,50 365,0 0,32 -365,0 0,-32 z m 91,82 183,0 0,32 -183,0 0,-32 z m -91,50 365,0 0,32 -365,0 0,-32 z m 0,50 365,0 0,32 -365,0 0,-32 z m 0,50 365,0 0,32 -365,0 0,-32 z M 482,55 45,55 l 0,597 437,0 0,-597 z M 200,704 c 7,0 13,6 13,13 0,7 -6,13 -13,13 -7,0 -13,-6 -13,-13 0,-7 6,-13 13,-13 z m -33,0 c 7,0 13,6 13,13 0,7 -6,13 -13,13 -7,0 -13,-6 -13,-13 0,-7 6,-13 13,-13 z m 191,0 c 7,0 13,6 13,13 0,7 -6,13 -13,13 -7,0 -13,-6 -13,-13 0,-7 6,-13 13,-13 z m -33,0 c 7,0 13,6 13,13 0,7 -6,13 -13,13 -7,0 -13,-6 -13,-13 0,-7 6,-13 13,-13 z m -81,-19 40,0 c 7,0 12,6 12,12 l 0,40 c 0,7 -6,12 -12,12 l -40,0 c -7,0 -12,-6 -12,-12 l 0,-40 c 0,-7 6,-12 12,-12 z m -3,9 46,0 0,46 -46,0 0,-46 z"
       id="path4154"
       inkscape:connector-curvature="0"
       style="fill:#333333;fill-opacity:1" /></g></svg>